<svg width="113" height="113" viewBox="0 0 113 113" fill="none" xmlns="http://www.w3.org/2000/svg">
<g clip-path="url(#clip0)">
<path d="M56.098 112.195C87.0801 112.195 112.196 87.0791 112.196 56.097C112.196 25.1149 87.0801 -0.00100708 56.098 -0.00100708C25.1159 -0.00100708 0 25.1149 0 56.097C0 87.0791 25.1159 112.195 56.098 112.195Z" fill="#007AB9"/>
<path d="M89.616 60.611V83.739H76.207V62.161C76.207 56.743 74.271 53.043 69.416 53.043C65.711 53.043 63.51 55.534 62.538 57.946C62.185 58.808 62.094 60.005 62.094 61.214V83.738H48.684C48.684 83.738 48.864 47.192 48.684 43.409H62.095V49.124C62.068 49.169 62.03 49.213 62.006 49.256H62.095V49.124C63.877 46.382 67.055 42.462 74.18 42.462C83.002 42.462 89.616 48.226 89.616 60.611ZM34.656 23.969C30.069 23.969 27.068 26.98 27.068 30.936C27.068 34.808 29.982 37.906 34.48 37.906H34.567C39.244 37.906 42.152 34.808 42.152 30.936C42.063 26.98 39.244 23.969 34.656 23.969ZM27.865 83.739H41.27V43.409H27.865V83.739Z" fill="#F1F2F2"/>
</g>
<defs>
<clipPath id="clip0">
<rect width="112.196" height="112.196" fill="white"/>
</clipPath>
</defs>
</svg>
